<svg xmlns="http://www.w3.org/2000/svg" viewBox="0 0 64 22"><path d="M36.06,22l2-3.94a2.81,2.81,0,0,1,.7-.93A2.51,2.51,0,0,1,39.88,17H56.05a1.63,1.63,0,0,0,1.23-.49,1.81,1.81,0,0,0,.54-1.31,1.63,1.63,0,0,0-.54-1.26,1.55,1.55,0,0,0-1.23-.55H43.15a9.83,9.83,0,0,1-3-.44,7.24,7.24,0,0,1-2.47-1.31,6.3,6.3,0,0,1-1.61-2.08,6.61,6.61,0,0,1-.59-2.84,6.3,6.3,0,0,1,.59-2.79,6.19,6.19,0,0,1,1.61-2.13A7.41,7.41,0,0,1,40.14.44a10.14,10.14,0,0,1,3-.44H60.83l-2,3.94a2.69,2.69,0,0,1-.7.87A2.27,2.27,0,0,1,57.07,5H43.31a1.59,1.59,0,0,0-1.18.49,1.66,1.66,0,0,0-.48,1.2,1.64,1.64,0,0,0,.48,1.2,1.59,1.59,0,0,0,1.18.5h14a6.92,6.92,0,0,1,2.58.49A5.67,5.67,0,0,1,62,10.28a6.33,6.33,0,0,1,1.45,2.13A6.63,6.63,0,0,1,64,15.15a7,7,0,0,1-.54,2.79A7.1,7.1,0,0,1,62,20.12a5.94,5.94,0,0,1-2.09,1.37,6.92,6.92,0,0,1-2.58.49Z"/><path d="M6.66,9V7.9H.05V22H6.66V14.1H17.85a10,10,0,0,0,3-.45,7.32,7.32,0,0,0,2.49-1.35A6.51,6.51,0,0,0,25,10.18a6.83,6.83,0,0,0,.6-2.92,6.54,6.54,0,0,0-2.23-5A7.13,7.13,0,0,0,20.89.88a10,10,0,0,0-3-.45H.42L2.71,5.36a2.35,2.35,0,0,0,1.09.17H17.69a1.58,1.58,0,0,1,1.19.5,1.74,1.74,0,0,1,.49,1.23,1.71,1.71,0,0,1-.49,1.23A1.59,1.59,0,0,1,17.69,9Z"/><path d="M18.86,5.45l-.09,0A1.57,1.57,0,0,0,17.59,5H3.78A2.32,2.32,0,0,1,2.7,4.81,2.69,2.69,0,0,1,2,3.94L0,0H17.75a10.11,10.11,0,0,1,3,.44,7.37,7.37,0,0,1,2.48,1.31,9.65,9.65,0,0,1,1.52,2.09l-.12,0,5.87,13L35.67,4.72A6.1,6.1,0,0,1,36,3.88a3.18,3.18,0,0,1,.16-.32l.15-.36.07,0a6.41,6.41,0,0,1,1.23-1.42A7.41,7.41,0,0,1,40.1.44a10.11,10.11,0,0,1,3-.44H60.87l-2,3.94a2.84,2.84,0,0,1-.7.87A2.32,2.32,0,0,1,57.09,5H43.28a1.61,1.61,0,0,0-1.19.49l-.09.2c-.68,1.58-1.33,3.08-1.93,4.5L38.45,14,37,17.33l-1.08,2.46c-.29.66-.45,1-.48,1.1a1.89,1.89,0,0,1-.65.93,2.74,2.74,0,0,1-1.13.16H26.2Z"/></svg>